<mxfile host="app.diagrams.net" modified="2023-06-27T07:30:27.519Z" agent="Mozilla/5.0 (Windows NT 10.0; Win64; x64) AppleWebKit/537.36 (KHTML, like Gecko) Chrome/114.0.0.0 Safari/537.36" etag="o8LtUHmeMB7IXeWfCbqc" version="21.5.1" type="device">
  <diagram name="페이지-1" id="GHzYC1kFA0pd2_-ugyQo">
    <mxGraphModel dx="1023" dy="1194" grid="1" gridSize="10" guides="1" tooltips="1" connect="1" arrows="1" fold="1" page="1" pageScale="1" pageWidth="827" pageHeight="1169" math="0" shadow="0">
      <root>
        <mxCell id="0" />
        <mxCell id="1" parent="0" />
        <mxCell id="xdDOXgokQ3Xpl5yxTw0o-1" value="Actor" style="shape=umlActor;verticalLabelPosition=bottom;verticalAlign=top;html=1;outlineConnect=0;" parent="1" vertex="1">
          <mxGeometry x="80" y="100" width="30" height="60" as="geometry" />
        </mxCell>
        <mxCell id="xdDOXgokQ3Xpl5yxTw0o-4" value="게시글 검색" style="ellipse;whiteSpace=wrap;html=1;" parent="1" vertex="1">
          <mxGeometry x="580" y="880" width="140" height="70" as="geometry" />
        </mxCell>
        <mxCell id="xdDOXgokQ3Xpl5yxTw0o-5" value="" style="endArrow=open;endFill=1;endSize=12;html=1;rounded=0;" parent="1" edge="1">
          <mxGeometry width="160" relative="1" as="geometry">
            <mxPoint x="50" y="230" as="sourcePoint" />
            <mxPoint x="180" y="230" as="targetPoint" />
          </mxGeometry>
        </mxCell>
        <mxCell id="xdDOXgokQ3Xpl5yxTw0o-6" value="&amp;lt;&amp;lt; include &amp;gt;&amp;gt;" style="endArrow=open;endSize=12;dashed=1;html=1;rounded=0;" parent="1" edge="1">
          <mxGeometry y="10" width="160" relative="1" as="geometry">
            <mxPoint x="50" y="260" as="sourcePoint" />
            <mxPoint x="180" y="260" as="targetPoint" />
            <mxPoint y="1" as="offset" />
          </mxGeometry>
        </mxCell>
        <mxCell id="xdDOXgokQ3Xpl5yxTw0o-9" value="&amp;lt;&amp;lt; extend &amp;gt;&amp;gt;" style="endArrow=open;endSize=12;dashed=1;html=1;rounded=0;" parent="1" edge="1">
          <mxGeometry y="10" width="160" relative="1" as="geometry">
            <mxPoint x="50" y="290" as="sourcePoint" />
            <mxPoint x="180" y="290" as="targetPoint" />
            <mxPoint y="1" as="offset" />
          </mxGeometry>
        </mxCell>
        <mxCell id="xdDOXgokQ3Xpl5yxTw0o-12" value="" style="endArrow=block;endSize=16;endFill=0;html=1;rounded=0;" parent="1" edge="1">
          <mxGeometry width="160" relative="1" as="geometry">
            <mxPoint x="50" y="320" as="sourcePoint" />
            <mxPoint x="180" y="320" as="targetPoint" />
          </mxGeometry>
        </mxCell>
        <mxCell id="xdDOXgokQ3Xpl5yxTw0o-13" value="규칙 1. 연관관계(실선 화살표)는&lt;br&gt;엑터 -&amp;gt; 유스케이스&lt;br&gt;유스케이스 -&amp;gt; 엑터&lt;br&gt;위 형식만 가능하다" style="text;html=1;align=center;verticalAlign=middle;resizable=0;points=[];autosize=1;strokeColor=none;fillColor=none;" parent="1" vertex="1">
          <mxGeometry x="265" y="120" width="200" height="70" as="geometry" />
        </mxCell>
        <mxCell id="xdDOXgokQ3Xpl5yxTw0o-14" value="Actor" style="shape=umlActor;verticalLabelPosition=bottom;verticalAlign=top;html=1;outlineConnect=0;" parent="1" vertex="1">
          <mxGeometry x="350" y="220" width="30" height="60" as="geometry" />
        </mxCell>
        <mxCell id="xdDOXgokQ3Xpl5yxTw0o-15" value="Use Case" style="ellipse;whiteSpace=wrap;html=1;" parent="1" vertex="1">
          <mxGeometry x="490" y="215" width="140" height="70" as="geometry" />
        </mxCell>
        <mxCell id="xdDOXgokQ3Xpl5yxTw0o-16" value="" style="endArrow=open;endFill=1;endSize=12;html=1;rounded=0;entryX=0;entryY=0.5;entryDx=0;entryDy=0;" parent="1" source="xdDOXgokQ3Xpl5yxTw0o-14" target="xdDOXgokQ3Xpl5yxTw0o-15" edge="1">
          <mxGeometry width="160" relative="1" as="geometry">
            <mxPoint x="440" y="330" as="sourcePoint" />
            <mxPoint x="470" y="245" as="targetPoint" />
          </mxGeometry>
        </mxCell>
        <mxCell id="xdDOXgokQ3Xpl5yxTw0o-18" value="Actor" style="shape=umlActor;verticalLabelPosition=bottom;verticalAlign=top;html=1;outlineConnect=0;" parent="1" vertex="1">
          <mxGeometry x="570" y="375" width="30" height="60" as="geometry" />
        </mxCell>
        <mxCell id="xdDOXgokQ3Xpl5yxTw0o-22" value="Use Case" style="ellipse;whiteSpace=wrap;html=1;" parent="1" vertex="1">
          <mxGeometry x="310" y="370" width="140" height="70" as="geometry" />
        </mxCell>
        <mxCell id="xdDOXgokQ3Xpl5yxTw0o-23" value="" style="endArrow=open;endFill=1;endSize=12;html=1;rounded=0;entryX=1;entryY=0.5;entryDx=0;entryDy=0;" parent="1" source="xdDOXgokQ3Xpl5yxTw0o-18" target="xdDOXgokQ3Xpl5yxTw0o-22" edge="1">
          <mxGeometry width="160" relative="1" as="geometry">
            <mxPoint x="560" y="407" as="sourcePoint" />
            <mxPoint x="465" y="405" as="targetPoint" />
          </mxGeometry>
        </mxCell>
        <mxCell id="xdDOXgokQ3Xpl5yxTw0o-24" value="규칙2. 포함, 확장 관계는&lt;br&gt;유스케이스 끼리만 가능하다!" style="text;html=1;align=center;verticalAlign=middle;resizable=0;points=[];autosize=1;strokeColor=none;fillColor=none;" parent="1" vertex="1">
          <mxGeometry x="270" y="473" width="180" height="40" as="geometry" />
        </mxCell>
        <mxCell id="xdDOXgokQ3Xpl5yxTw0o-25" value="내 정보 조회" style="ellipse;whiteSpace=wrap;html=1;" parent="1" vertex="1">
          <mxGeometry x="290" y="540" width="140" height="70" as="geometry" />
        </mxCell>
        <mxCell id="xdDOXgokQ3Xpl5yxTw0o-26" value="로그인" style="ellipse;whiteSpace=wrap;html=1;" parent="1" vertex="1">
          <mxGeometry x="580" y="540" width="140" height="70" as="geometry" />
        </mxCell>
        <mxCell id="xdDOXgokQ3Xpl5yxTw0o-27" value="&amp;lt;&amp;lt; include &amp;gt;&amp;gt;" style="endArrow=open;endSize=12;dashed=1;html=1;rounded=0;exitX=1;exitY=0.5;exitDx=0;exitDy=0;entryX=0;entryY=0.5;entryDx=0;entryDy=0;" parent="1" source="xdDOXgokQ3Xpl5yxTw0o-25" target="xdDOXgokQ3Xpl5yxTw0o-26" edge="1">
          <mxGeometry y="10" width="160" relative="1" as="geometry">
            <mxPoint x="456" y="578" as="sourcePoint" />
            <mxPoint x="565.9999999999984" y="575" as="targetPoint" />
            <mxPoint y="1" as="offset" />
          </mxGeometry>
        </mxCell>
        <mxCell id="xdDOXgokQ3Xpl5yxTw0o-28" value="회원가입" style="ellipse;whiteSpace=wrap;html=1;" parent="1" vertex="1">
          <mxGeometry x="290" y="640" width="140" height="70" as="geometry" />
        </mxCell>
        <mxCell id="xdDOXgokQ3Xpl5yxTw0o-29" value="프로필 사진 등록" style="ellipse;whiteSpace=wrap;html=1;" parent="1" vertex="1">
          <mxGeometry x="580" y="640" width="140" height="70" as="geometry" />
        </mxCell>
        <mxCell id="xdDOXgokQ3Xpl5yxTw0o-31" value="&amp;lt;&amp;lt; extend &amp;gt;&amp;gt;" style="endArrow=open;endSize=12;dashed=1;html=1;rounded=0;exitX=0;exitY=0.5;exitDx=0;exitDy=0;entryX=1;entryY=0.5;entryDx=0;entryDy=0;" parent="1" source="xdDOXgokQ3Xpl5yxTw0o-29" target="xdDOXgokQ3Xpl5yxTw0o-28" edge="1">
          <mxGeometry y="10" width="160" relative="1" as="geometry">
            <mxPoint x="565.9999999999984" y="675" as="sourcePoint" />
            <mxPoint x="406" y="790" as="targetPoint" />
            <mxPoint y="1" as="offset" />
          </mxGeometry>
        </mxCell>
        <mxCell id="xdDOXgokQ3Xpl5yxTw0o-32" value="규칙3.일반화 관계는&lt;br&gt;엑터끼리 또는 유스케이스 끼리만 가능하다!" style="text;html=1;align=center;verticalAlign=middle;resizable=0;points=[];autosize=1;strokeColor=none;fillColor=none;" parent="1" vertex="1">
          <mxGeometry x="235" y="730" width="260" height="40" as="geometry" />
        </mxCell>
        <mxCell id="xdDOXgokQ3Xpl5yxTw0o-33" value="제목검색" style="ellipse;whiteSpace=wrap;html=1;" parent="1" vertex="1">
          <mxGeometry x="280" y="840" width="140" height="70" as="geometry" />
        </mxCell>
        <mxCell id="xdDOXgokQ3Xpl5yxTw0o-34" value="내용검색" style="ellipse;whiteSpace=wrap;html=1;" parent="1" vertex="1">
          <mxGeometry x="280" y="940" width="140" height="70" as="geometry" />
        </mxCell>
        <mxCell id="xdDOXgokQ3Xpl5yxTw0o-35" value="" style="endArrow=block;endSize=16;endFill=0;html=1;rounded=0;entryX=0.024;entryY=0.343;entryDx=0;entryDy=0;entryPerimeter=0;exitX=1.003;exitY=0.62;exitDx=0;exitDy=0;exitPerimeter=0;" parent="1" source="xdDOXgokQ3Xpl5yxTw0o-33" target="xdDOXgokQ3Xpl5yxTw0o-4" edge="1">
          <mxGeometry width="160" relative="1" as="geometry">
            <mxPoint x="450" y="860" as="sourcePoint" />
            <mxPoint x="580" y="860" as="targetPoint" />
          </mxGeometry>
        </mxCell>
        <mxCell id="xdDOXgokQ3Xpl5yxTw0o-36" value="" style="endArrow=block;endSize=16;endFill=0;html=1;rounded=0;entryX=0.041;entryY=0.696;entryDx=0;entryDy=0;entryPerimeter=0;exitX=0.995;exitY=0.36;exitDx=0;exitDy=0;exitPerimeter=0;" parent="1" source="xdDOXgokQ3Xpl5yxTw0o-34" target="xdDOXgokQ3Xpl5yxTw0o-4" edge="1">
          <mxGeometry width="160" relative="1" as="geometry">
            <mxPoint x="430" y="920" as="sourcePoint" />
            <mxPoint x="583" y="991" as="targetPoint" />
          </mxGeometry>
        </mxCell>
        <mxCell id="xdDOXgokQ3Xpl5yxTw0o-37" value="회원" style="shape=umlActor;verticalLabelPosition=bottom;verticalAlign=top;html=1;outlineConnect=0;" parent="1" vertex="1">
          <mxGeometry x="335" y="1080" width="30" height="60" as="geometry" />
        </mxCell>
        <mxCell id="xdDOXgokQ3Xpl5yxTw0o-38" value="사용자" style="shape=umlActor;verticalLabelPosition=bottom;verticalAlign=top;html=1;outlineConnect=0;" parent="1" vertex="1">
          <mxGeometry x="635" y="1150" width="30" height="60" as="geometry" />
        </mxCell>
        <mxCell id="xdDOXgokQ3Xpl5yxTw0o-39" value="비회원" style="shape=umlActor;verticalLabelPosition=bottom;verticalAlign=top;html=1;outlineConnect=0;" parent="1" vertex="1">
          <mxGeometry x="335" y="1270" width="30" height="60" as="geometry" />
        </mxCell>
        <mxCell id="xdDOXgokQ3Xpl5yxTw0o-40" value="" style="endArrow=block;endSize=16;endFill=0;html=1;rounded=0;" parent="1" source="xdDOXgokQ3Xpl5yxTw0o-37" target="xdDOXgokQ3Xpl5yxTw0o-38" edge="1">
          <mxGeometry width="160" relative="1" as="geometry">
            <mxPoint x="390" y="1120" as="sourcePoint" />
            <mxPoint x="540" y="1190" as="targetPoint" />
          </mxGeometry>
        </mxCell>
        <mxCell id="xdDOXgokQ3Xpl5yxTw0o-47" value="" style="endArrow=block;endSize=16;endFill=0;html=1;rounded=0;" parent="1" source="xdDOXgokQ3Xpl5yxTw0o-39" target="xdDOXgokQ3Xpl5yxTw0o-38" edge="1">
          <mxGeometry width="160" relative="1" as="geometry">
            <mxPoint x="440" y="1260" as="sourcePoint" />
            <mxPoint x="710" y="1324" as="targetPoint" />
          </mxGeometry>
        </mxCell>
        <mxCell id="xdDOXgokQ3Xpl5yxTw0o-50" value="공지사항 조회" style="ellipse;whiteSpace=wrap;html=1;" parent="1" vertex="1">
          <mxGeometry x="827" y="1145" width="140" height="70" as="geometry" />
        </mxCell>
        <mxCell id="xdDOXgokQ3Xpl5yxTw0o-52" value="" style="endArrow=open;endFill=1;endSize=12;html=1;rounded=0;" parent="1" source="xdDOXgokQ3Xpl5yxTw0o-38" target="xdDOXgokQ3Xpl5yxTw0o-50" edge="1">
          <mxGeometry width="160" relative="1" as="geometry">
            <mxPoint x="620" y="1179.4099999999999" as="sourcePoint" />
            <mxPoint x="720" y="1180" as="targetPoint" />
          </mxGeometry>
        </mxCell>
        <mxCell id="W0R5EeFyvwS9dRH4JwOf-3" value="비회원" style="shape=umlActor;verticalLabelPosition=bottom;verticalAlign=top;html=1;outlineConnect=0;" vertex="1" parent="1">
          <mxGeometry x="345.5" y="1555" width="29" height="60" as="geometry" />
        </mxCell>
        <mxCell id="W0R5EeFyvwS9dRH4JwOf-4" value="회원가입" style="ellipse;whiteSpace=wrap;html=1;" vertex="1" parent="1">
          <mxGeometry x="490" y="1550" width="139" height="70" as="geometry" />
        </mxCell>
        <mxCell id="W0R5EeFyvwS9dRH4JwOf-5" value="" style="endArrow=open;endFill=1;endSize=12;html=1;rounded=0;entryX=0;entryY=0.5;entryDx=0;entryDy=0;" edge="1" parent="1" source="W0R5EeFyvwS9dRH4JwOf-3" target="W0R5EeFyvwS9dRH4JwOf-4">
          <mxGeometry width="160" relative="1" as="geometry">
            <mxPoint x="370" y="1585" as="sourcePoint" />
            <mxPoint x="510" y="1584.44" as="targetPoint" />
          </mxGeometry>
        </mxCell>
        <mxCell id="W0R5EeFyvwS9dRH4JwOf-6" value="&amp;lt;&amp;lt; include &amp;gt;&amp;gt;" style="endArrow=open;endSize=12;dashed=1;html=1;rounded=0;exitX=1;exitY=0.492;exitDx=0;exitDy=0;exitPerimeter=0;entryX=0;entryY=0.5;entryDx=0;entryDy=0;" edge="1" parent="1" source="W0R5EeFyvwS9dRH4JwOf-4" target="W0R5EeFyvwS9dRH4JwOf-7">
          <mxGeometry y="10" width="160" relative="1" as="geometry">
            <mxPoint x="640" y="1584.44" as="sourcePoint" />
            <mxPoint x="750" y="1540" as="targetPoint" />
            <mxPoint y="1" as="offset" />
          </mxGeometry>
        </mxCell>
        <mxCell id="W0R5EeFyvwS9dRH4JwOf-7" value="이메일 인증" style="ellipse;whiteSpace=wrap;html=1;" vertex="1" parent="1">
          <mxGeometry x="780" y="1550" width="139" height="70" as="geometry" />
        </mxCell>
        <mxCell id="W0R5EeFyvwS9dRH4JwOf-8" value="Gmail 서버&lt;br&gt;" style="shape=umlActor;verticalLabelPosition=bottom;verticalAlign=top;html=1;outlineConnect=0;" vertex="1" parent="1">
          <mxGeometry x="1020" y="1555" width="29" height="60" as="geometry" />
        </mxCell>
        <mxCell id="W0R5EeFyvwS9dRH4JwOf-10" value="" style="endArrow=open;endFill=1;endSize=12;html=1;rounded=0;exitX=1;exitY=0.5;exitDx=0;exitDy=0;entryX=0.5;entryY=0.5;entryDx=0;entryDy=0;entryPerimeter=0;" edge="1" parent="1" source="W0R5EeFyvwS9dRH4JwOf-7" target="W0R5EeFyvwS9dRH4JwOf-8">
          <mxGeometry width="160" relative="1" as="geometry">
            <mxPoint x="930" y="1579.33" as="sourcePoint" />
            <mxPoint x="1000" y="1590" as="targetPoint" />
          </mxGeometry>
        </mxCell>
        <mxCell id="W0R5EeFyvwS9dRH4JwOf-11" value="프로필 사진 등록" style="ellipse;whiteSpace=wrap;html=1;" vertex="1" parent="1">
          <mxGeometry x="780" y="1640" width="139" height="70" as="geometry" />
        </mxCell>
        <mxCell id="W0R5EeFyvwS9dRH4JwOf-12" value="&amp;lt;&amp;lt; extend &amp;gt;&amp;gt;" style="endArrow=open;endSize=12;dashed=1;html=1;rounded=0;exitX=0;exitY=0.5;exitDx=0;exitDy=0;entryX=0.942;entryY=0.748;entryDx=0;entryDy=0;entryPerimeter=0;" edge="1" parent="1" source="W0R5EeFyvwS9dRH4JwOf-11" target="W0R5EeFyvwS9dRH4JwOf-4">
          <mxGeometry y="10" width="160" relative="1" as="geometry">
            <mxPoint x="740" y="1700" as="sourcePoint" />
            <mxPoint x="590" y="1700" as="targetPoint" />
            <mxPoint y="1" as="offset" />
          </mxGeometry>
        </mxCell>
        <mxCell id="W0R5EeFyvwS9dRH4JwOf-13" value="회원" style="shape=umlActor;verticalLabelPosition=bottom;verticalAlign=top;html=1;outlineConnect=0;" vertex="1" parent="1">
          <mxGeometry x="345.5" y="1910" width="29" height="60" as="geometry" />
        </mxCell>
        <mxCell id="W0R5EeFyvwS9dRH4JwOf-16" value="사용자" style="shape=umlActor;verticalLabelPosition=bottom;verticalAlign=top;html=1;outlineConnect=0;" vertex="1" parent="1">
          <mxGeometry x="541" y="1740" width="29" height="60" as="geometry" />
        </mxCell>
        <mxCell id="W0R5EeFyvwS9dRH4JwOf-17" value="" style="endArrow=block;endSize=16;endFill=0;html=1;rounded=0;" edge="1" parent="1" source="W0R5EeFyvwS9dRH4JwOf-3" target="W0R5EeFyvwS9dRH4JwOf-16">
          <mxGeometry width="160" relative="1" as="geometry">
            <mxPoint x="430" y="1610" as="sourcePoint" />
            <mxPoint x="490" y="1750" as="targetPoint" />
          </mxGeometry>
        </mxCell>
        <mxCell id="W0R5EeFyvwS9dRH4JwOf-18" value="" style="endArrow=block;endSize=16;endFill=0;html=1;rounded=0;" edge="1" parent="1" source="W0R5EeFyvwS9dRH4JwOf-13" target="W0R5EeFyvwS9dRH4JwOf-16">
          <mxGeometry width="160" relative="1" as="geometry">
            <mxPoint x="345.5" y="1740" as="sourcePoint" />
            <mxPoint x="511.5" y="1897" as="targetPoint" />
          </mxGeometry>
        </mxCell>
        <mxCell id="W0R5EeFyvwS9dRH4JwOf-19" value="공지사항 조회" style="ellipse;whiteSpace=wrap;html=1;" vertex="1" parent="1">
          <mxGeometry x="780" y="1735" width="139" height="70" as="geometry" />
        </mxCell>
        <mxCell id="W0R5EeFyvwS9dRH4JwOf-20" value="" style="endArrow=open;endFill=1;endSize=12;html=1;rounded=0;entryX=0;entryY=0.5;entryDx=0;entryDy=0;" edge="1" parent="1" source="W0R5EeFyvwS9dRH4JwOf-16" target="W0R5EeFyvwS9dRH4JwOf-19">
          <mxGeometry width="160" relative="1" as="geometry">
            <mxPoint x="570" y="1770" as="sourcePoint" />
            <mxPoint x="695" y="1769.33" as="targetPoint" />
          </mxGeometry>
        </mxCell>
        <mxCell id="W0R5EeFyvwS9dRH4JwOf-21" value="관리자" style="shape=umlActor;verticalLabelPosition=bottom;verticalAlign=top;html=1;outlineConnect=0;" vertex="1" parent="1">
          <mxGeometry x="345.5" y="1740" width="29" height="60" as="geometry" />
        </mxCell>
        <mxCell id="W0R5EeFyvwS9dRH4JwOf-23" value="" style="endArrow=block;endSize=16;endFill=0;html=1;rounded=0;" edge="1" parent="1" source="W0R5EeFyvwS9dRH4JwOf-21" target="W0R5EeFyvwS9dRH4JwOf-16">
          <mxGeometry width="160" relative="1" as="geometry">
            <mxPoint x="450" y="2003" as="sourcePoint" />
            <mxPoint x="616" y="2160" as="targetPoint" />
          </mxGeometry>
        </mxCell>
        <mxCell id="W0R5EeFyvwS9dRH4JwOf-25" value="마이페이지" style="ellipse;whiteSpace=wrap;html=1;" vertex="1" parent="1">
          <mxGeometry x="490.5" y="1905" width="139" height="70" as="geometry" />
        </mxCell>
        <mxCell id="W0R5EeFyvwS9dRH4JwOf-26" value="" style="endArrow=open;endFill=1;endSize=12;html=1;rounded=0;entryX=0;entryY=0.5;entryDx=0;entryDy=0;" edge="1" parent="1" source="W0R5EeFyvwS9dRH4JwOf-13" target="W0R5EeFyvwS9dRH4JwOf-25">
          <mxGeometry width="160" relative="1" as="geometry">
            <mxPoint x="390" y="1920" as="sourcePoint" />
            <mxPoint x="584.5" y="1919.33" as="targetPoint" />
          </mxGeometry>
        </mxCell>
        <mxCell id="W0R5EeFyvwS9dRH4JwOf-28" value="내 정보 조회" style="ellipse;whiteSpace=wrap;html=1;" vertex="1" parent="1">
          <mxGeometry x="780" y="1830" width="139" height="70" as="geometry" />
        </mxCell>
        <mxCell id="W0R5EeFyvwS9dRH4JwOf-29" value="내가 좋아요 누른 &lt;br&gt;게시글 조회" style="ellipse;whiteSpace=wrap;html=1;" vertex="1" parent="1">
          <mxGeometry x="780" y="1920" width="139" height="70" as="geometry" />
        </mxCell>
        <mxCell id="W0R5EeFyvwS9dRH4JwOf-30" value="회원 탈퇴" style="ellipse;whiteSpace=wrap;html=1;" vertex="1" parent="1">
          <mxGeometry x="780" y="2010" width="139" height="70" as="geometry" />
        </mxCell>
        <mxCell id="W0R5EeFyvwS9dRH4JwOf-33" value="&amp;lt;&amp;lt; extend &amp;gt;&amp;gt;" style="endArrow=open;endSize=12;dashed=1;html=1;rounded=0;exitX=0;exitY=0.5;exitDx=0;exitDy=0;entryX=1;entryY=1;entryDx=0;entryDy=0;" edge="1" parent="1" source="W0R5EeFyvwS9dRH4JwOf-30" target="W0R5EeFyvwS9dRH4JwOf-25">
          <mxGeometry y="10" width="160" relative="1" as="geometry">
            <mxPoint x="774" y="2094" as="sourcePoint" />
            <mxPoint x="590" y="2040" as="targetPoint" />
            <mxPoint y="1" as="offset" />
          </mxGeometry>
        </mxCell>
        <mxCell id="W0R5EeFyvwS9dRH4JwOf-34" value="&amp;lt;&amp;lt; extend &amp;gt;&amp;gt;" style="endArrow=open;endSize=12;dashed=1;html=1;rounded=0;exitX=0;exitY=0.5;exitDx=0;exitDy=0;entryX=1;entryY=0.5;entryDx=0;entryDy=0;" edge="1" parent="1" source="W0R5EeFyvwS9dRH4JwOf-29" target="W0R5EeFyvwS9dRH4JwOf-25">
          <mxGeometry y="10" width="160" relative="1" as="geometry">
            <mxPoint x="806" y="2015" as="sourcePoint" />
            <mxPoint x="635" y="1905" as="targetPoint" />
            <mxPoint y="1" as="offset" />
          </mxGeometry>
        </mxCell>
        <mxCell id="W0R5EeFyvwS9dRH4JwOf-35" value="&amp;lt;&amp;lt; extend &amp;gt;&amp;gt;" style="endArrow=open;endSize=12;dashed=1;html=1;rounded=0;entryX=0.929;entryY=0.21;entryDx=0;entryDy=0;entryPerimeter=0;exitX=0;exitY=0.5;exitDx=0;exitDy=0;" edge="1" parent="1" source="W0R5EeFyvwS9dRH4JwOf-28" target="W0R5EeFyvwS9dRH4JwOf-25">
          <mxGeometry y="10" width="160" relative="1" as="geometry">
            <mxPoint x="730" y="1870" as="sourcePoint" />
            <mxPoint x="635" y="1830" as="targetPoint" />
            <mxPoint y="1" as="offset" />
          </mxGeometry>
        </mxCell>
        <mxCell id="W0R5EeFyvwS9dRH4JwOf-36" value="&amp;nbsp;자유 게시판 목록 조회" style="ellipse;whiteSpace=wrap;html=1;" vertex="1" parent="1">
          <mxGeometry x="491" y="2030" width="139" height="70" as="geometry" />
        </mxCell>
        <mxCell id="W0R5EeFyvwS9dRH4JwOf-37" value="&amp;nbsp;자유 게시판 상세 조회" style="ellipse;whiteSpace=wrap;html=1;" vertex="1" parent="1">
          <mxGeometry x="490" y="2120" width="139" height="70" as="geometry" />
        </mxCell>
        <mxCell id="W0R5EeFyvwS9dRH4JwOf-38" value="&amp;nbsp;자유 게시판 글 작성" style="ellipse;whiteSpace=wrap;html=1;" vertex="1" parent="1">
          <mxGeometry x="495" y="2210" width="139" height="70" as="geometry" />
        </mxCell>
        <mxCell id="W0R5EeFyvwS9dRH4JwOf-39" value="" style="endArrow=open;endFill=1;endSize=12;html=1;rounded=0;entryX=0;entryY=0.5;entryDx=0;entryDy=0;" edge="1" parent="1" source="W0R5EeFyvwS9dRH4JwOf-13" target="W0R5EeFyvwS9dRH4JwOf-36">
          <mxGeometry width="160" relative="1" as="geometry">
            <mxPoint x="335" y="2040" as="sourcePoint" />
            <mxPoint x="451" y="2040" as="targetPoint" />
          </mxGeometry>
        </mxCell>
        <mxCell id="W0R5EeFyvwS9dRH4JwOf-40" value="" style="endArrow=open;endFill=1;endSize=12;html=1;rounded=0;entryX=0;entryY=0.5;entryDx=0;entryDy=0;" edge="1" parent="1" source="W0R5EeFyvwS9dRH4JwOf-13" target="W0R5EeFyvwS9dRH4JwOf-37">
          <mxGeometry width="160" relative="1" as="geometry">
            <mxPoint x="365" y="2050" as="sourcePoint" />
            <mxPoint x="480" y="2179" as="targetPoint" />
          </mxGeometry>
        </mxCell>
        <mxCell id="W0R5EeFyvwS9dRH4JwOf-41" value="" style="endArrow=open;endFill=1;endSize=12;html=1;rounded=0;entryX=0;entryY=0.5;entryDx=0;entryDy=0;" edge="1" parent="1" source="W0R5EeFyvwS9dRH4JwOf-13" target="W0R5EeFyvwS9dRH4JwOf-38">
          <mxGeometry width="160" relative="1" as="geometry">
            <mxPoint x="356" y="2130.5" as="sourcePoint" />
            <mxPoint x="471" y="2259.5" as="targetPoint" />
          </mxGeometry>
        </mxCell>
        <mxCell id="W0R5EeFyvwS9dRH4JwOf-42" value="게시글 수정" style="ellipse;whiteSpace=wrap;html=1;" vertex="1" parent="1">
          <mxGeometry x="780" y="2120" width="139" height="70" as="geometry" />
        </mxCell>
        <mxCell id="W0R5EeFyvwS9dRH4JwOf-43" value="게시글 삭제" style="ellipse;whiteSpace=wrap;html=1;" vertex="1" parent="1">
          <mxGeometry x="780" y="2210" width="139" height="70" as="geometry" />
        </mxCell>
        <mxCell id="W0R5EeFyvwS9dRH4JwOf-44" value="&amp;lt;&amp;lt; extend &amp;gt;&amp;gt;" style="endArrow=open;endSize=12;dashed=1;html=1;rounded=0;exitX=0;exitY=0.5;exitDx=0;exitDy=0;entryX=0.958;entryY=0.789;entryDx=0;entryDy=0;entryPerimeter=0;" edge="1" parent="1" source="W0R5EeFyvwS9dRH4JwOf-43" target="W0R5EeFyvwS9dRH4JwOf-37">
          <mxGeometry y="10" width="160" relative="1" as="geometry">
            <mxPoint x="750" y="2221" as="sourcePoint" />
            <mxPoint x="580" y="2140" as="targetPoint" />
            <mxPoint y="1" as="offset" />
          </mxGeometry>
        </mxCell>
        <mxCell id="W0R5EeFyvwS9dRH4JwOf-45" value="&amp;lt;&amp;lt; extend &amp;gt;&amp;gt;" style="endArrow=open;endSize=12;dashed=1;html=1;rounded=0;entryX=1;entryY=0.5;entryDx=0;entryDy=0;exitX=0;exitY=0.5;exitDx=0;exitDy=0;" edge="1" parent="1" source="W0R5EeFyvwS9dRH4JwOf-42" target="W0R5EeFyvwS9dRH4JwOf-37">
          <mxGeometry y="10" width="160" relative="1" as="geometry">
            <mxPoint x="740" y="2170" as="sourcePoint" />
            <mxPoint x="640" y="2100" as="targetPoint" />
            <mxPoint y="1" as="offset" />
          </mxGeometry>
        </mxCell>
        <mxCell id="W0R5EeFyvwS9dRH4JwOf-46" value="로그인" style="ellipse;whiteSpace=wrap;html=1;" vertex="1" parent="1">
          <mxGeometry x="295.5" y="2210" width="139" height="70" as="geometry" />
        </mxCell>
        <mxCell id="W0R5EeFyvwS9dRH4JwOf-47" value="" style="endArrow=open;endFill=1;endSize=12;html=1;rounded=0;entryX=0.5;entryY=0;entryDx=0;entryDy=0;" edge="1" parent="1" source="W0R5EeFyvwS9dRH4JwOf-13" target="W0R5EeFyvwS9dRH4JwOf-46">
          <mxGeometry width="160" relative="1" as="geometry">
            <mxPoint x="312.5" y="1990" as="sourcePoint" />
            <mxPoint x="365" y="2180" as="targetPoint" />
          </mxGeometry>
        </mxCell>
      </root>
    </mxGraphModel>
  </diagram>
</mxfile>
